<?xml version="1.0" encoding="utf-8"?>
<!-- Generator: Adobe Illustrator 22.1.0, SVG Export Plug-In . SVG Version: 6.00 Build 0)  -->
<svg version="1.1" id="Calque_1" xmlns="http://www.w3.org/2000/svg" xmlns:xlink="http://www.w3.org/1999/xlink" x="0px" y="0px"
	 viewBox="0 0 612 612" style="enable-background:new 0 0 612 612;" xml:space="preserve">
<g inkscape:version="0.48.1 r9760" sodipodi:docname="twitter_bootstrap_logo.svg" xmlns:cc="http://creativecommons.org/ns#" xmlns:dc="http://purl.org/dc/elements/1.1/" xmlns:inkscape="http://www.inkscape.org/namespaces/inkscape" xmlns:rdf="http://www.w3.org/1999/02/22-rdf-syntax-ns#" xmlns:sodipodi="http://sodipodi.sourceforge.net/DTD/sodipodi-0.dtd" xmlns:svg="http://www.w3.org/2000/svg">
	<path d="M383.5,341.8c-10.5-9.5-25.2-14.2-44.2-14.2H228.8V439h110.5c19,0,33.8-4.9,44.2-14.8c10.5-9.8,15.8-23.8,15.8-41.8
		C399.2,364.8,394,351.2,383.5,341.8L383.5,341.8z M368.2,269.8c10-8.5,15-20.8,15-36.8c0-18-4.5-30.7-13.5-38s-22-11-39-11h-102
		v98.5h102C345.7,282.5,358.2,278.2,368.2,269.8z"/>
	<path d="M510,0H102C45.9,0,0,45.9,0,102v408c0,56.1,45.9,102,102,102h408c56.1,0,102-45.9,102-102V102C612,45.9,566.1,0,510,0z
		 M454.2,429.8c-5,12.2-12.8,22.7-23.5,31.5s-24.3,15.8-41,21s-36.5,7.8-59.5,7.8h-164V133h173.5c32,0,57.7,7.3,77,22
		s29,36.8,29,66.5c0,18-4.4,33.4-13.2,46.2c-8.8,12.8-21.4,22.8-37.8,29.8v1c22,4.7,38.7,15.1,50,31.2c11.3,16.2,17,36.4,17,60.8
		C461.7,404.5,459.2,417.6,454.2,429.8z"/>
</g>
</svg>
